# xmcd
#
# Track frame offsets:
#  150
#  18046
#  37798
#  56460
#  71522
#  86865
#  105084
#  122459
#  144411
#  163046
#  182684
#  201497
#
# Disc length: 2883 seconds
#
# Revision: 2
# Processed by: cddbd v1.5.2PL0 Copyright (c) Steve Scherf et al.
# Submitted via: AltoMP3_Maker 3.0
#
DISCID=920b410c
DTITLE=Plüsch - Sidefiin
DYEAR=2004
DGENRE=Pop
TTITLE0=blibe wini bi
TTITLE1=jede tag (u jedi nacht)
TTITLE2=irgendeinisch
TTITLE3=i setze alls
TTITLE4=schwein gha
TTITLE5=schlaraffeland
TTITLE6=für immer
TTITLE7=schutzängel
TTITLE8=liebesspiel
TTITLE9=schlafloos
TTITLE10=da für di
TTITLE11=schöne momänt
EXTD=
EXTT0=
EXTT1=
EXTT2=
EXTT3=
EXTT4=
EXTT5=
EXTT6=
EXTT7=
EXTT8=
EXTT9=
EXTT10=
EXTT11=
PLAYORDER=
